<?xml version="1.0" encoding="utf-8"?>
<!-- Generator: Adobe Illustrator 27.5.0, SVG Export Plug-In . SVG Version: 6.00 Build 0)  -->
<svg version="1.1" xmlns="http://www.w3.org/2000/svg" xmlns:xlink="http://www.w3.org/1999/xlink" x="0px" y="0px"
	 viewBox="0 0 500 500" style="enable-background:new 0 0 500 500;" xml:space="preserve">
<g id="Floor">
	<ellipse style="fill:#F5F5F5;" cx="250" cy="377.348" rx="197.05" ry="111.936"/>
</g>
<g id="Shadows">
	<path style="fill:#E0E0E0;" d="M332.005,447.927l-147.099-84.928c-5.67-3.274-5.667-11.459,0.006-14.728l14.51-9.147
		c5.096-2.937,11.372-2.934,16.466,0.007l147.099,84.927c5.67,3.274,5.667,11.459-0.006,14.729l-14.511,9.147
		C343.375,450.871,337.099,450.868,332.005,447.927z"/>
	<ellipse style="fill:#E6E6E6;" cx="108.35" cy="352.174" rx="31.924" ry="18.328"/>
</g>
<g id="Plants">
	<g>
		<g>
			<path style="fill:#BA68C8;" d="M384.156,374.702l14.008,8.052c0,0-7.152-22.471-3.343-45.127
				c1.438-8.551,4.527-12.81,5.613-15.095c1.087-2.285,9.445-16.444,2.001-22.919c-7.445-6.475-24.784,6.552-23.845,41.414
				C379.072,358.917,384.156,374.702,384.156,374.702z"/>
			<path style="opacity:0.5;" d="M384.156,374.702l14.008,8.052c0,0-7.152-22.471-3.343-45.127
				c1.438-8.551,4.527-12.81,5.613-15.095c1.087-2.285,9.445-16.444,2.001-22.919c-7.445-6.475-24.784,6.552-23.845,41.414
				C379.072,358.917,384.156,374.702,384.156,374.702z"/>
			<path style="fill:#FFFFFF;" d="M390.668,378.945c-0.203,0-0.394-0.124-0.469-0.326c-0.054-0.145-5.395-14.767-5.225-38.272
				c0.171-23.617,12.514-36.257,12.639-36.381c0.195-0.196,0.511-0.195,0.706-0.001c0.196,0.195,0.196,0.511,0.002,0.707
				c-0.122,0.122-12.18,12.497-12.347,35.682c-0.169,23.306,5.108,37.773,5.162,37.917c0.096,0.259-0.035,0.546-0.294,0.643
				C390.785,378.935,390.726,378.945,390.668,378.945z"/>
		</g>
		<g>
			<path style="fill:#BA68C8;" d="M389.997,378.14l19.143,10.957c4.146,2.373,9.569,1.349,12.219-2.626
				c1.096-1.645,1.77-3.81,1.508-6.65c-0.917-9.938-5.238-12.231,0.056-16.665c5.295-4.434,6.671-4.74,6.365-9.02
				c-0.306-4.281-3.211-6.116-4.587-7.797c-1.376-1.682-5.198-5.198-2.599-10.396c2.599-5.198,6.143-10.232,0.764-12.537
				c-3.211-1.376-8.562,0.459-12.078,4.281c-3.516,3.822-6.421,6.574-9.785,7.491c-3.363,0.917-10.396,1.07-10.09,6.88
				c0.306,5.81,1.838,7.799,0.459,10.396C388.774,357.347,377.46,360.099,389.997,378.14z"/>
			<path style="fill:#FFFFFF;" d="M399.46,384.057c-0.255,0-0.473-0.194-0.497-0.454c-0.032-0.344-2.944-34.662,20.652-57.498
				c0.198-0.191,0.515-0.187,0.707,0.012c0.192,0.198,0.186,0.515-0.012,0.707c-23.256,22.506-20.384,56.347-20.351,56.687
				c0.025,0.275-0.177,0.518-0.451,0.544C399.491,384.056,399.476,384.057,399.46,384.057z"/>
			<path style="fill:#FFFFFF;" d="M403.249,354.518c-0.256,0-0.475-0.197-0.497-0.457c-0.783-9.108-7.168-13.688-7.233-13.733
				c-0.227-0.159-0.281-0.47-0.122-0.696c0.159-0.227,0.473-0.281,0.696-0.122c0.278,0.195,6.831,4.898,7.654,14.465
				c0.024,0.275-0.18,0.518-0.455,0.541C403.278,354.517,403.264,354.518,403.249,354.518z"/>
			<path style="fill:#FFFFFF;" d="M401.616,360.41c-0.117,0-0.235-0.041-0.33-0.125c-0.207-0.182-0.228-0.498-0.046-0.705
				c0.244-0.279,6.147-6.801,20.008-5.066c0.274,0.034,0.468,0.284,0.434,0.558c-0.034,0.274-0.294,0.462-0.559,0.434
				c-13.301-1.669-19.074,4.67-19.132,4.734C401.893,360.353,401.755,360.41,401.616,360.41z"/>
		</g>
	</g>
</g>
<g id="Device">
	<g>
		<path style="fill:#455A64;" d="M327.523,437.779l-129.368-74.69c-9.128-5.27-16.527-19.408-16.527-31.578V54.491
			c0-12.17,7.4-17.764,16.527-12.494l129.368,74.69c9.128,5.27,16.527,19.408,16.527,31.578v277.019
			C344.051,437.455,336.651,443.049,327.523,437.779z"/>
		<path style="fill:#37474F;" d="M342.42,108.004L213.053,33.314c-3.903-2.253-7.487-2.515-10.314-1.131v0l-0.003,0.002
			c-0.347,0.17-0.683,0.366-1.007,0.585l-14.493,8.426c2.913-1.741,6.734-1.616,10.921,0.802l129.368,74.69
			c9.128,5.27,16.527,19.408,16.527,31.578v277.019c0,6.434-2.069,11.028-5.368,13.153l14.303-8.332l-0.002-0.002
			c3.643-1.939,5.963-6.689,5.963-13.502V139.582C358.948,127.412,351.548,113.274,342.42,108.004z"/>
		<path style="fill:#263238;" d="M344.051,148.266v277.019c0,6.434-2.069,11.028-5.368,13.153l14.303-8.332l-0.002-0.002
			c3.643-1.939,5.963-6.689,5.963-13.502V139.582c0-0.007,0-0.015,0-0.022l-14.898,8.65
			C344.05,148.229,344.051,148.247,344.051,148.266z"/>
		<polygon style="fill:#37474F;" points="358.948,161.088 344.051,169.689 344.051,176.405 358.948,167.804 		"/>
		<g>
			<path style="fill:#37474F;" d="M352.421,205.781L352.421,205.781c-1.333,0.769-2.413-0.047-2.413-1.824V189.51
				c0-1.777,1.08-3.841,2.413-4.61l0,0c1.333-0.769,2.413,0.047,2.413,1.824v14.447
				C354.833,202.948,353.753,205.012,352.421,205.781z"/>
			<path style="fill:#455A64;" d="M350.008,203.957V189.51c0-1.777,1.08-3.841,2.413-4.61c0.581-0.335,1.106-0.354,1.522-0.139
				l0.003-0.017l-1.802-0.935l-0.003,0.015c-0.422-0.239-0.964-0.229-1.564,0.117c-1.332,0.77-2.413,2.834-2.413,4.61v14.447
				c0,0.959,0.321,1.625,0.82,1.926l-0.003,0.015l1.892,0.986l0.003-0.017C350.35,205.624,350.008,204.947,350.008,203.957z"/>
		</g>
		<g>
			<path style="fill:#37474F;" d="M352.421,240.755L352.421,240.755c-1.333,0.769-2.413-0.047-2.413-1.824v-14.447
				c0-1.777,1.08-3.841,2.413-4.61l0,0c1.333-0.769,2.413,0.047,2.413,1.824v14.447
				C354.833,237.922,353.753,239.986,352.421,240.755z"/>
			<path style="fill:#455A64;" d="M350.008,238.931v-14.447c0-1.777,1.08-3.841,2.413-4.61c0.581-0.335,1.106-0.354,1.522-0.139
				l0.003-0.017l-1.802-0.935l-0.003,0.015c-0.422-0.239-0.964-0.229-1.564,0.117c-1.332,0.77-2.413,2.833-2.413,4.61v14.447
				c0,0.959,0.321,1.625,0.82,1.926l-0.003,0.015l1.892,0.986l0.003-0.017C350.35,240.598,350.008,239.921,350.008,238.931z"/>
		</g>
		<path style="fill:#BA68C8;" d="M323.026,124.478L195.884,51.059c-2.338-1.35-5.26,0.337-5.26,3.036V331.51
			c0,9.264,6.564,20.633,14.586,25.264l124.052,71.622c2.575,1.486,5.793-0.372,5.793-3.344V145.313
			C335.055,137.674,329.642,128.298,323.026,124.478z"/>
		<path style="opacity:0.9;fill:#FFFFFF;" d="M323.026,124.478L195.884,51.059c-2.338-1.35-5.26,0.337-5.26,3.036V331.51
			c0,9.264,6.564,20.633,14.586,25.264l124.052,71.622c2.575,1.486,5.793-0.372,5.793-3.344V145.313
			C335.055,137.674,329.642,128.298,323.026,124.478z"/>
		<polygon style="fill:#455A64;" points="233.901,70.226 235.87,78.522 278.011,102.819 285.287,98.94 		"/>
		<g>
			<path style="fill:#263238;" d="M246.285,78.241c0,1.376-0.966,1.933-2.157,1.245c-1.191-0.688-2.157-2.36-2.157-3.736
				c0-1.375,0.966-1.933,2.157-1.245C245.32,75.193,246.285,76.866,246.285,78.241z"/>
			<path style="fill:#263238;" d="M274.677,95.789c-0.224,0-0.449-0.055-0.657-0.172L252.496,83.59
				c-0.65-0.364-0.883-1.186-0.52-1.836c0.364-0.651,1.187-0.883,1.836-0.52l21.524,12.027c0.65,0.364,0.883,1.186,0.52,1.836
				C275.609,95.539,275.15,95.789,274.677,95.789z"/>
		</g>
	</g>
	<g>
		<path style="fill:#BA68C8;" d="M217.275,108.798c-1.31-0.756-2.259-0.099-2.259,1.574c0,1.691,0.949,3.463,2.259,4.219
			c0.778,0.45,1.761,0.459,2.477-0.009l2.089,3.778c-1.216,0.827-3.07,0.746-4.753-0.226c-3.35-1.934-5.78-6.09-5.78-9.85
			c0-3.706,2.493-4.965,5.921-2.986c1.667,0.963,3.489,2.915,4.612,4.966l-2.089,1.655
			C219.098,110.516,218.116,109.284,217.275,108.798z"/>
		<path style="fill:#BA68C8;" d="M233.868,121.329c0,3.742-2.523,5.038-5.998,3.032c-3.474-2.006-5.998-6.198-5.998-9.958
			c0-3.742,2.524-4.965,5.998-2.959C231.345,113.449,233.868,117.604,233.868,121.329z M225.58,116.562
			c0,1.727,1.09,3.634,2.337,4.354c1.247,0.72,2.244,0.018,2.244-1.709c0-1.728-0.997-3.544-2.244-4.264
			C226.655,114.214,225.58,114.834,225.58,116.562z"/>
		<path style="fill:#BA68C8;" d="M237.904,117.362l4.315,8.968v-6.477l3.271,1.889v12.611l-3.021-1.745l-4.301-8.923v6.441
			l-3.287-1.898v-12.611L237.904,117.362z"/>
		<path style="fill:#BA68C8;" d="M256.18,127.913v3.292l-3.116-1.799v9.319l-3.614-2.087v-9.319l-3.101-1.79v-3.293L256.18,127.913z
			"/>
		<path style="fill:#BA68C8;" d="M263.222,142.81l-4.098-2.366l-0.56,1.457l-3.707-2.141l4.611-9.949l3.708,2.141l4.439,15.175
			l-3.848-2.222L263.222,142.81z M262.334,139.311l-1.121-4.336l-1.153,3.023L262.334,139.311z"/>
		<path style="fill:#BA68C8;" d="M273.351,141.173c-1.31-0.756-2.259-0.099-2.259,1.574c0,1.691,0.949,3.463,2.259,4.219
			c0.778,0.45,1.761,0.459,2.477-0.009l2.089,3.778c-1.216,0.827-3.07,0.746-4.753-0.226c-3.35-1.934-5.78-6.09-5.78-9.85
			c0-3.706,2.493-4.965,5.921-2.986c1.667,0.963,3.489,2.915,4.612,4.966l-2.089,1.655
			C275.173,142.891,274.192,141.659,273.351,141.173z"/>
		<path style="fill:#BA68C8;" d="M287.777,146.156v3.292l-3.115-1.799v9.319l-3.614-2.087v-9.319l-3.101-1.79v-3.292
			L287.777,146.156z"/>
		<path style="fill:#BA68C8;" d="M298.451,161.638c0.888,0.513,1.573,0.117,1.573-1.143v-7.268l3.615,2.087v7.268
			c0,3.347-2.041,4.345-5.204,2.519c-3.179-1.835-5.281-5.226-5.281-8.572v-7.268l3.614,2.087v7.268
			C296.769,159.856,297.548,161.116,298.451,161.638z"/>
		<path style="fill:#BA68C8;" d="M309.467,161.683c-0.405-0.233-0.67-0.243-0.67,0.135c0,1.583,5.655,3.859,5.655,8.428
			c0,2.807-2.135,2.815-4.597,1.394c-1.9-1.097-4.019-3.058-5.469-5.172l1.341-2.357c1.121,1.727,3.053,3.724,4.159,4.362
			c0.53,0.307,0.873,0.307,0.873-0.144c0-1.637-5.655-3.823-5.655-8.248c0-2.518,1.838-3.04,4.673-1.404
			c1.729,0.999,3.521,2.627,4.753,4.237l-1.309,2.411C312.115,163.985,310.417,162.231,309.467,161.683z"/>
	</g>
</g>
<g id="Speech_bubble">
	<g>
		<path style="fill:#BA68C8;" d="M199.089,170.941c3.61-4.426,5.777-10.075,5.777-16.232c0-14.194-11.506-25.7-25.7-25.7
			s-25.7,11.506-25.7,25.7c0,14.194,11.506,25.7,25.7,25.7c4.821,0,9.33-1.33,13.186-3.64l12.515,5.435L199.089,170.941z"/>
		<path style="opacity:0.4;" d="M199.089,170.941c3.61-4.426,5.777-10.075,5.777-16.232c0-14.194-11.506-25.7-25.7-25.7
			s-25.7,11.506-25.7,25.7c0,14.194,11.506,25.7,25.7,25.7c4.821,0,9.33-1.33,13.186-3.64l12.515,5.435L199.089,170.941z"/>
		<g>
			<path style="fill:#FFFFFF;" d="M169.652,153.343c0-0.397-0.281-0.611-0.794-0.611c-0.876,0-2.032,0.579-3.156,1.487l-1.421-2.76
				c1.652-1.14,3.354-1.818,5.173-1.818c2.395,0,4.214,1.256,4.214,3.14c0,1.338-0.976,2.628-2.281,3.917l-1.784,1.768h4.23v2.941
				h-9.089l-0.017-2.413l4.049-4.181C169.255,154.318,169.652,153.74,169.652,153.343z"/>
			<path style="fill:#FFFFFF;" d="M181.231,149.807l-2.76,6.626h1.124v-2.231h3.486v2.231h1.322v2.727h-1.322v2.247h-3.486v-2.247
				h-4.941v-2.479l2.975-6.874H181.231z"/>
			<path style="fill:#FFFFFF;" d="M195.141,155.641v5.767h-3.718v-4.693c0-0.76-0.43-1.239-1.074-1.239
				c-0.727,0-1.189,0.579-1.189,1.454v4.479h-3.719v-12.262h3.719v4.511c0.611-0.925,1.553-1.454,2.743-1.454
				C193.803,152.203,195.141,153.558,195.141,155.641z"/>
		</g>
	</g>
</g>
<g id="Character">
	<g>
		<g>
			<path style="fill:#BA68C8;" d="M316.437,248.564V372.81c0,6.172-6.683,10.034-12.027,6.943l-66.923-38.642l-11.854-6.837
				c-2.504-1.444-4.718-3.264-6.586-5.363c-4.343-4.853-6.846-11.199-6.846-17.91V186.744c0-6.172,6.673-10.024,12.027-6.943
				l78.767,45.488C311.315,230.085,316.437,238.963,316.437,248.564z"/>
			<path style="opacity:0.5;fill:#FFFFFF;" d="M316.437,248.564V372.81c0,6.172-6.683,10.034-12.027,6.943l-66.923-38.642
				l-11.854-6.837c-2.504-1.444-4.718-3.264-6.586-5.363c-4.343-4.853-6.846-11.199-6.846-17.91V186.744
				c0-6.172,6.673-10.024,12.027-6.943l78.767,45.488C311.315,230.085,316.437,238.963,316.437,248.564z"/>
			<g>
				<path style="fill:#263238;" d="M277.892,322.078c0,0,12.532,20.78,3.475,44.214l-43.88-25.182L277.892,322.078z"/>
				<g>
					
						<ellipse transform="matrix(0.1222 -0.9925 0.9925 0.1222 23.9404 481.0457)" style="fill:#263238;" cx="283.918" cy="226.989" rx="14.05" ry="14.05"/>
					<g>
						<path style="fill:#263238;" d="M283.985,187.586c0,0,4.314-7.032,5.638-6.49c1.324,0.542-0.862,7.185-0.862,7.185
							s6.524,1.355,5.304,2.982c-1.22,1.627-9.18,1.252-9.18,1.252L283.985,187.586z"/>
						<path style="fill:#263238;" d="M287.02,205.627c-3.033,22.542-22.003,22.542-22.003,22.542L225.2,210.654
							c0,0-3.004-2.629-3.919-8.676c-0.318-2.07-0.395-4.555-0.01-7.463c0-0.019,0.01-0.048,0.01-0.068
							c1.271-9.475,8.358-19.672,23.803-22.802c3.081-0.636,6.5-0.982,10.274-0.982c1.724,0,3.38,0.077,4.969,0.25
							c12.046,1.175,20.414,6.779,24.42,15.484c0.876,1.906,1.541,3.958,1.984,6.153C287.55,196.499,287.655,200.88,287.02,205.627z
							"/>
					</g>
				</g>
				<g>
					<path style="fill:#BA68C8;" d="M191.453,249.227c0,0-14.133-0.483-19.576,13.287c0,0,6.013,4.05,13.876,0.018
						C193.615,258.5,191.453,249.227,191.453,249.227z"/>
					<path style="opacity:0.5;" d="M191.453,249.227c0,0-14.133-0.483-19.576,13.287c0,0,6.013,4.05,13.876,0.018
						C193.615,258.5,191.453,249.227,191.453,249.227z"/>
					<path style="fill:#945959;" d="M191.046,255.857c0,0-3.987-17.375-6.102-17.59c-2.223-0.226-2.523,5.303-2.351,8.411
						l-5.035-10.755c-0.665-1.419-2.385-1.967-3.758-1.212c-5.008,2.751-13.771,11.11,4.725,31.783L191.046,255.857z"/>
					<path style="fill:#BA68C8;" d="M242.25,243.844l-2.981-0.395c-6.159-0.815-12.278,1.754-16.009,6.721l-17.846,23.763
						l-13.96-24.706c0,0-1.686,16.804-19.576,13.287l19.217,32.328c5.251,8.834,17.691,9.746,24.175,1.773l16.439-20.215
						L242.25,243.844z"/>
				</g>
				<path style="fill:#BA68C8;" d="M280.347,299.29c-3.996,10.14-4.439,12.123-1.955,17.188c2.475,5.055,4.025,11.642,4.025,11.642
					s-18.536,20.78-44.93,12.99l-11.854-6.837c-2.504-1.444-4.718-3.264-6.586-5.363l3.544-26.866
					c0.183-1.415,0.039-2.87-0.424-4.218l-3.784-11.102c-3.775-11.083-0.857-23.341,7.52-31.517l12.74-12.451l33.462,4.218
					l4.969,1.435c6.76,1.945,11.074,8.57,10.111,15.541C285.537,275.805,282.86,292.916,280.347,299.29z"/>
				<path style="opacity:0.5;" d="M280.347,299.29c-3.996,10.14-4.439,12.123-1.955,17.188c2.475,5.055,4.025,11.642,4.025,11.642
					s-18.536,20.78-44.93,12.99l-11.854-6.837c-2.504-1.444-4.718-3.264-6.586-5.363l3.544-26.866
					c0.183-1.415,0.039-2.87-0.424-4.218l-3.784-11.102c-3.775-11.083-0.857-23.341,7.52-31.517l12.74-12.451l33.462,4.218
					l4.969,1.435c6.76,1.945,11.074,8.57,10.111,15.541C285.537,275.805,282.86,292.916,280.347,299.29z"/>
				<path style="fill:#BA68C8;" d="M260.174,269.032l-6.701-5.708c-1.447-1.233-3.438-1.61-5.236-0.992l-8.101,2.785l-1.089-4.536
					c-0.715-2.98-3.773-4.761-6.718-3.913l-3.512,1.011l5.947-11.38c1.937-3.706,4.923-6.759,8.585-8.778l2.327-1.283l19.251,0.991
					c0,0,7.177,2.972,7.177,9.75L260.174,269.032"/>
				<g>
					<g>
						<polygon style="fill:#945959;" points="265.013,245.715 245.707,260.757 245.707,212.871 265.013,212.871 						"/>
					</g>
					<polygon style="fill:#945959;" points="246.007,241.774 240.136,265.116 264.927,245.715 					"/>
				</g>
				<path style="fill:#703838;" d="M245.707,238.303c7.427-2.867,15.188-8.621,19.306-18.36v-7.072h-19.306V238.303z"/>
				<path style="fill:#945959;" d="M249.874,177.383c-7.322,0-22.889,4.081-24.685,23.236c-1.796,19.156-0.063,34.021,9.825,35.445
					c9.888,1.424,32.84-5.733,35.914-30.532C274.002,180.734,257.016,177.383,249.874,177.383z"/>
				<polygon style="fill:#703838;" points="238.346,208.727 238.346,220.024 231.731,217.993 				"/>
				<g>
					<circle style="fill:#263238;" cx="245.707" cy="210.681" r="2.302"/>
					<path style="fill:#263238;" d="M232.87,209.076c0,1.271-1.03,2.301-2.302,2.301c-1.271,0-2.302-1.03-2.302-2.301
						c0-1.271,1.031-2.302,2.302-2.302C231.839,206.774,232.87,207.805,232.87,209.076z"/>
					<path style="fill:#263238;" d="M227.764,204.283l4.501-2.673c0,0-1.728-1.795-3.447-0.717
						C227.098,201.972,227.764,204.283,227.764,204.283z"/>
				</g>
				<path style="fill:#703838;" d="M235.235,224.603c0,0,3.654,0.333,6.199-1.66c0,0,0.423,3.264-2.312,3.889
					C236.387,227.457,235.235,224.603,235.235,224.603z"/>
				<path style="fill:#263238;" d="M231.311,183.897c0,0,2.753,26.455,38.718,27.28c0,0,10.866-26.286-10.61-34.827
					C237.943,167.811,231.311,183.897,231.311,183.897z"/>
				<g>
					<g>
						<path style="fill:#BA68C8;" d="M280.616,207.217l0.001-0.001l-0.019-0.011c-0.005-0.003-0.01-0.006-0.016-0.009l-4.421-2.553
							l-0.002,0.003c-1.674-0.988-3.997-0.86-6.566,0.623c-5.102,2.946-9.238,10.109-9.238,16c0,2.949,1.037,5.02,2.713,5.984
							l0,0.001l4.342,2.493c0.083,0.051,0.167,0.099,0.253,0.145l0.147,0.085l0.007-0.012c1.645,0.796,3.832,0.607,6.242-0.784
							c5.102-2.945,9.238-10.109,9.238-16C283.295,210.25,282.271,208.189,280.616,207.217z"/>
						
							<ellipse transform="matrix(0.5 -0.866 0.866 0.5 -52.2092 346.5974)" style="fill:#BA68C8;" cx="274.058" cy="218.513" rx="13.064" ry="7.542"/>
						
							<ellipse transform="matrix(0.5 -0.866 0.866 0.5 -52.2092 346.5974)" style="opacity:0.5;" cx="274.058" cy="218.513" rx="13.064" ry="7.542"/>
						<path style="fill:#BA68C8;" d="M282.393,212.765l0.001-0.001l-0.013-0.008c-0.004-0.002-0.007-0.004-0.011-0.006l-3.025-1.747
							l-0.001,0.002c-1.146-0.676-2.735-0.588-4.493,0.426c-3.491,2.016-6.321,6.917-6.321,10.948c0,2.018,0.71,3.435,1.856,4.094
							l0,0l2.97,1.706c0.057,0.035,0.115,0.068,0.174,0.1l0.1,0.058l0.005-0.008c1.125,0.544,2.622,0.416,4.271-0.536
							c3.491-2.016,6.321-6.917,6.321-10.948C284.227,214.84,283.526,213.43,282.393,212.765z"/>
						<path style="fill:#BA68C8;" d="M284.227,216.845c0,4.031-2.83,8.932-6.321,10.948c-3.491,2.016-6.321,0.382-6.321-3.649
							c0-4.031,2.83-8.933,6.321-10.948C281.397,211.18,284.227,212.814,284.227,216.845z"/>
						<path style="opacity:0.3;" d="M284.227,216.845c0,4.031-2.83,8.932-6.321,10.948c-3.491,2.016-6.321,0.382-6.321-3.649
							c0-4.031,2.83-8.933,6.321-10.948C281.397,211.18,284.227,212.814,284.227,216.845z"/>
					</g>
					<path style="fill:#BA68C8;" d="M266.886,172.215c-2.855-2.232-6.381-3.41-10.004-3.463c-0.289-0.004-0.579-0.006-0.871-0.006
						c-4.014,0-7.649,0.369-10.926,1.044c0.658-0.026,1.316-0.023,1.974,0h-1.974v1.855h1.856c3.977,0.14,7.932,1.234,11.49,3.283
						c7.636,4.41,12.383,12.634,12.383,21.454v7.867c0,1.311,1.121,2.349,2.449,2.212c0.078-0.008,0.15-0.031,0.225-0.047
						l1.973-0.614l0-0.003c-0.133,0.04-0.269,0.071-0.412,0.086c1.229-0.126,2.116-1.254,2.116-2.49v-7.299
						C277.165,182.89,271.456,175.788,266.886,172.215z"/>
					<g>
						<path style="fill:#BA68C8;" d="M254.303,235.514c-0.811,0-1.627-0.172-2.395-0.528l-6.253-2.891
							c-0.373-0.173-0.536-0.616-0.363-0.989c0.174-0.374,0.617-0.533,0.988-0.364l6.253,2.891c1.633,0.756,3.568,0.392,4.816-0.906
							l5.965-6.203c0.286-0.296,0.757-0.306,1.054-0.021c0.296,0.285,0.306,0.757,0.021,1.053l-5.965,6.203
							C257.322,234.906,255.824,235.514,254.303,235.514z"/>
						<path style="opacity:0.5;" d="M254.303,235.514c-0.811,0-1.627-0.172-2.395-0.528l-6.253-2.891
							c-0.373-0.173-0.536-0.616-0.363-0.989c0.174-0.374,0.617-0.533,0.988-0.364l6.253,2.891c1.633,0.756,3.568,0.392,4.816-0.906
							l5.965-6.203c0.286-0.296,0.757-0.306,1.054-0.021c0.296,0.285,0.306,0.757,0.021,1.053l-5.965,6.203
							C257.322,234.906,255.824,235.514,254.303,235.514z"/>
						<path style="fill:#BA68C8;" d="M247.302,229.976c0,1.613-1.307,2.92-2.92,2.92s-2.92-1.307-2.92-2.92
							c0-1.613,1.307-2.92,2.92-2.92S247.302,228.363,247.302,229.976z"/>
						<path style="opacity:0.5;" d="M247.302,229.976c0,1.613-1.307,2.92-2.92,2.92s-2.92-1.307-2.92-2.92
							c0-1.613,1.307-2.92,2.92-2.92S247.302,228.363,247.302,229.976z"/>
					</g>
					<path style="fill:#BA68C8;" d="M277.165,196.096v7.299c0,1.236-0.887,2.363-2.116,2.49c-1.412,0.145-2.605-0.959-2.605-2.352
						v-7.436c0-9.379-5.048-18.124-13.168-22.814c-4.372-2.519-9.308-3.686-14.192-3.492c3.277-0.676,6.912-1.044,10.926-1.044
						c0.292,0,0.583,0.002,0.871,0.006c3.623,0.053,7.15,1.231,10.004,3.463C271.456,175.788,277.165,182.89,277.165,196.096z"/>
					<path style="opacity:0.5;" d="M277.165,196.096v7.299c0,1.236-0.887,2.363-2.116,2.49c-1.412,0.145-2.605-0.959-2.605-2.352
						v-7.436c0-9.379-5.048-18.124-13.168-22.814c-4.372-2.519-9.308-3.686-14.192-3.492c3.277-0.676,6.912-1.044,10.926-1.044
						c0.292,0,0.583,0.002,0.871,0.006c3.623,0.053,7.15,1.231,10.004,3.463C271.456,175.788,277.165,182.89,277.165,196.096z"/>
				</g>
				<path style="fill:#BA68C8;" d="M265.927,333.673c0,0-4.842,13.348,12.461,19.312c0,0,5.651-8.293,0-15.082
					S265.927,333.673,265.927,333.673z"/>
				<path style="opacity:0.7;" d="M265.927,333.673c0,0-4.842,13.348,12.461,19.312c0,0,5.651-8.293,0-15.082
					S265.927,333.673,265.927,333.673z"/>
				<path style="fill:#945959;" d="M271.969,334.277c0,0-16.895,6.198-16.809,8.59c0.085,2.392,7.185,0.765,7.185,0.765
					l-2.595,1.697c-2.725,1.782-4.836,4.359-6.047,7.382v0c-0.552,1.379,0.025,2.954,1.338,3.649l6.421,3.401
					c1.528,0.809,3.422,0.196,4.186-1.355l0,0c0.711-1.443,1.987-2.512,3.514-3.021c3.489-1.164,9.971-4.506,12.607-13.64
					L271.969,334.277z"/>
				<path style="fill:#BA68C8;" d="M277.07,248.409c0,0-8.991,5.015-4.222,20.183c4.769,15.167,13.755,38.732,13.755,38.732
					l-20.676,26.35c0,0,6.921,0.464,11.113,6.635c4.192,6.171,1.348,12.678,1.348,12.678l25.659-32.962
					c4.823-6.196,6.193-14.407,3.641-21.833l-11.036-32.124c-2.732-7.953-9.025-14.171-17.01-16.808L277.07,248.409z"/>
			</g>
		</g>
	</g>
</g>
<g id="Icons">
	<g>
		<g>
			<g>
				<path style="fill:#BA68C8;" d="M125.152,158.74l-39.769-22.961c-1.2-0.693-2.301-0.773-3.171-0.348v0l-0.001,0.001
					c-0.107,0.052-0.21,0.112-0.31,0.18l-8.649,5.069c0.017-0.01,0.036-0.017,0.053-0.026c-1.086,0.615-1.776,2.056-1.776,4.114
					v44.22c0,3.741,2.275,8.087,5.081,9.707l39.769,22.961c1.358,0.784,2.588,0.78,3.499,0.149
					c-0.024,0.016-0.045,0.038-0.069,0.053l8.59-5.041l-0.001-0.001c1.12-0.596,1.833-2.056,1.833-4.151v-44.22
					C130.232,164.706,127.958,160.36,125.152,158.74z"/>
				<path style="fill:#BA68C8;" d="M128.81,162.931c-0.924-1.814-2.22-3.361-3.658-4.191l-39.769-22.961
					c-1.2-0.693-2.301-0.773-3.171-0.348v0l-0.001,0.001c-0.107,0.052-0.21,0.112-0.31,0.18l-8.649,5.069
					c0.895-0.535,2.07-0.497,3.357,0.247l39.769,22.961c1.488,0.859,2.823,2.488,3.752,4.384l0,0L128.81,162.931z"/>
				<path style="fill:#BA68C8;" d="M121.46,217.816c0,1.978-0.636,3.39-1.65,4.043l8.59-5.041l-0.001-0.001
					c1.12-0.596,1.833-2.056,1.833-4.151v-44.22c0-1.824-0.544-3.79-1.423-5.516l-8.679,5.341l0,0
					c0.823,1.679,1.329,3.566,1.329,5.323V217.816z"/>
				<path style="opacity:0.3;" d="M128.81,162.931c-0.924-1.814-2.22-3.361-3.658-4.191l-39.769-22.961
					c-1.2-0.693-2.301-0.773-3.171-0.348v0l-0.001,0.001c-0.107,0.052-0.21,0.112-0.31,0.18l-8.649,5.069
					c0.895-0.535,2.07-0.497,3.357,0.247l39.769,22.961c1.488,0.859,2.823,2.488,3.752,4.384l0,0L128.81,162.931z"/>
				<path style="opacity:0.6;" d="M121.46,217.816c0,1.978-0.636,3.39-1.65,4.043l8.59-5.041l-0.001-0.001
					c1.12-0.596,1.833-2.056,1.833-4.151v-44.22c0-1.824-0.544-3.79-1.423-5.516l-8.679,5.341l0,0
					c0.823,1.679,1.329,3.566,1.329,5.323V217.816z"/>
			</g>
			<g>
				<path style="fill:#BA68C8;" d="M109.804,186.272c0,5.725-2.271,7.675-5.678,5.708c-1.883-1.087-3.212-2.814-3.794-4.973
					c-0.97,1.231-2.548,1.311-4.737,0.048c-3.572-2.063-6.398-6.956-6.398-11.785c0-4.797,2.798-6.444,6.398-4.365
					c1.828,1.055,3.269,2.622,4.265,4.573v-1.887l3.767,2.175v10.362c0,1.535,0.582,2.383,1.33,2.814
					c1.274,0.736,2.049-0.512,2.049-4.221c0-6.492-4.155-13.368-10.303-16.918c-6.176-3.566-10.304-1.087-10.304,5.597
					c0,6.812,4.045,13.975,10.193,17.525c1.744,1.007,3.711,1.727,5.455,1.743l0.887,3.454c-1.69,0.016-4.155-0.864-6.342-2.127
					c-8.005-4.621-13.295-13.944-13.295-22.386c0-8.347,5.345-11.497,13.405-6.844C104.486,169.259,109.804,178.245,109.804,186.272
					z M99.916,181.459c0-2.782-1.468-5.197-3.462-6.348c-2.022-1.167-3.434-0.352-3.434,2.367c0,2.75,1.412,5.229,3.434,6.396
					C98.448,185.025,99.916,184.274,99.916,181.459z"/>
			</g>
			<g style="opacity:0.9;">
				<path style="fill:#FFFFFF;" d="M109.804,186.272c0,5.725-2.271,7.675-5.678,5.708c-1.883-1.087-3.212-2.814-3.794-4.973
					c-0.97,1.231-2.548,1.311-4.737,0.048c-3.572-2.063-6.398-6.956-6.398-11.785c0-4.797,2.798-6.444,6.398-4.365
					c1.828,1.055,3.269,2.622,4.265,4.573v-1.887l3.767,2.175v10.362c0,1.535,0.582,2.383,1.33,2.814
					c1.274,0.736,2.049-0.512,2.049-4.221c0-6.492-4.155-13.368-10.303-16.918c-6.176-3.566-10.304-1.087-10.304,5.597
					c0,6.812,4.045,13.975,10.193,17.525c1.744,1.007,3.711,1.727,5.455,1.743l0.887,3.454c-1.69,0.016-4.155-0.864-6.342-2.127
					c-8.005-4.621-13.295-13.944-13.295-22.386c0-8.347,5.345-11.497,13.405-6.844C104.486,169.259,109.804,178.245,109.804,186.272
					z M99.916,181.459c0-2.782-1.468-5.197-3.462-6.348c-2.022-1.167-3.434-0.352-3.434,2.367c0,2.75,1.412,5.229,3.434,6.396
					C98.448,185.025,99.916,184.274,99.916,181.459z"/>
			</g>
		</g>
		<g>
			<g>
				<path style="fill:#BA68C8;" d="M125.152,237.515l-39.769-22.961c-1.2-0.693-2.301-0.773-3.171-0.348l0,0l-0.001,0.001
					c-0.107,0.052-0.21,0.112-0.31,0.18l-8.649,5.069c0.017-0.01,0.036-0.017,0.053-0.026c-1.086,0.615-1.776,2.056-1.776,4.114
					v44.22c0,3.741,2.275,8.087,5.081,9.707l39.769,22.961c1.358,0.784,2.588,0.78,3.499,0.149
					c-0.024,0.016-0.045,0.038-0.069,0.053l8.59-5.041l-0.001-0.001c1.12-0.596,1.833-2.056,1.833-4.151v-44.22
					C130.232,243.482,127.958,239.135,125.152,237.515z"/>
				<path style="fill:#BA68C8;" d="M128.81,241.707c-0.924-1.814-2.22-3.361-3.658-4.191l-39.769-22.961
					c-1.2-0.693-2.301-0.773-3.171-0.348l0,0l-0.001,0.001c-0.107,0.052-0.21,0.112-0.31,0.18l-8.649,5.069
					c0.895-0.535,2.07-0.497,3.357,0.247l39.769,22.961c1.488,0.859,2.823,2.488,3.752,4.384l0,0L128.81,241.707z"/>
				<path style="fill:#BA68C8;" d="M121.46,296.592c0,1.978-0.636,3.39-1.65,4.043l8.59-5.041l-0.001-0.001
					c1.12-0.596,1.833-2.056,1.833-4.151v-44.22c0-1.824-0.544-3.79-1.423-5.516l-8.679,5.341l0,0
					c0.823,1.679,1.329,3.566,1.329,5.324V296.592z"/>
				<path style="opacity:0.3;" d="M128.81,241.707c-0.924-1.814-2.22-3.361-3.658-4.191l-39.769-22.961
					c-1.2-0.693-2.301-0.773-3.171-0.348l0,0l-0.001,0.001c-0.107,0.052-0.21,0.112-0.31,0.18l-8.649,5.069
					c0.895-0.535,2.07-0.497,3.357,0.247l39.769,22.961c1.488,0.859,2.823,2.488,3.752,4.384l0,0L128.81,241.707z"/>
				<path style="opacity:0.6;" d="M121.46,296.592c0,1.978-0.636,3.39-1.65,4.043l8.59-5.041l-0.001-0.001
					c1.12-0.596,1.833-2.056,1.833-4.151v-44.22c0-1.824-0.544-3.79-1.423-5.516l-8.679,5.341l0,0
					c0.823,1.679,1.329,3.566,1.329,5.324V296.592z"/>
			</g>
			<g>
				<polygon style="fill:#BA68C8;" points="92.045,257.287 82.457,241.707 82.457,262.823 				"/>
				<polygon style="fill:#BA68C8;" points="100.96,261.776 110.531,278.354 110.531,257.274 				"/>
				<path style="fill:#BA68C8;" d="M83.914,241.023l9.848,16.004c0.038,0.042,0.083,0.076,0.112,0.127
					c0.022,0.038,0.025,0.081,0.041,0.121l2.886,4.691l2.478-1.166c0.042-0.038,0.077-0.083,0.128-0.113
					c0.103-0.059,0.213-0.089,0.324-0.1l9.957-4.684L83.914,241.023z"/>
				<path style="fill:#BA68C8;" d="M99.508,262.46l-2.673,1.257c-0.109,0.052-0.226,0.076-0.339,0.076
					c-0.27,0-0.532-0.137-0.682-0.38l-2.931-4.763l-9.626,5.558l25.89,14.948L99.508,262.46z"/>
			</g>
			<g style="opacity:0.9;">
				<polygon style="fill:#FFFFFF;" points="92.045,257.287 82.457,241.707 82.457,262.823 				"/>
				<polygon style="fill:#FFFFFF;" points="100.96,261.776 110.531,278.354 110.531,257.274 				"/>
				<path style="fill:#FFFFFF;" d="M83.914,241.023l9.848,16.004c0.038,0.042,0.083,0.076,0.112,0.127
					c0.022,0.038,0.025,0.081,0.041,0.121l2.886,4.691l2.478-1.166c0.042-0.038,0.077-0.083,0.128-0.113
					c0.103-0.059,0.213-0.089,0.324-0.1l9.957-4.684L83.914,241.023z"/>
				<path style="fill:#FFFFFF;" d="M99.508,262.46l-2.673,1.257c-0.109,0.052-0.226,0.076-0.339,0.076
					c-0.27,0-0.532-0.137-0.682-0.38l-2.931-4.763l-9.626,5.558l25.89,14.948L99.508,262.46z"/>
			</g>
		</g>
		<g>
			<g>
				<path style="fill:#BA68C8;" d="M125.152,79.965L85.383,57.004c-1.2-0.693-2.301-0.773-3.171-0.348v0l-0.001,0.001
					c-0.107,0.052-0.21,0.112-0.31,0.18l-8.649,5.069c0.017-0.01,0.036-0.017,0.053-0.026c-1.086,0.615-1.776,2.056-1.776,4.114
					v44.22c0,3.741,2.275,8.088,5.081,9.708l39.769,22.961c1.358,0.784,2.588,0.78,3.499,0.149
					c-0.024,0.016-0.045,0.038-0.069,0.053l8.59-5.041l-0.001-0.001c1.12-0.596,1.833-2.056,1.833-4.151v-44.22
					C130.232,85.931,127.958,81.585,125.152,79.965z"/>
				<path style="fill:#BA68C8;" d="M128.81,84.156c-0.924-1.814-2.22-3.361-3.658-4.192L85.383,57.004
					c-1.2-0.693-2.301-0.773-3.171-0.348v0l-0.001,0.001c-0.107,0.052-0.21,0.112-0.31,0.18l-8.649,5.069
					c0.895-0.535,2.07-0.497,3.357,0.247l39.769,22.961c1.488,0.859,2.823,2.488,3.752,4.384l0,0L128.81,84.156z"/>
				<path style="fill:#BA68C8;" d="M121.46,139.041c0,1.978-0.636,3.39-1.65,4.043l8.59-5.041l-0.001-0.001
					c1.12-0.596,1.833-2.056,1.833-4.151v-44.22c0-1.824-0.544-3.79-1.423-5.516l-8.679,5.341l0,0
					c0.823,1.679,1.329,3.566,1.329,5.324V139.041z"/>
				<path style="opacity:0.3;" d="M128.81,84.156c-0.924-1.814-2.22-3.361-3.658-4.192L85.383,57.004
					c-1.2-0.693-2.301-0.773-3.171-0.348v0l-0.001,0.001c-0.107,0.052-0.21,0.112-0.31,0.18l-8.649,5.069
					c0.895-0.535,2.07-0.497,3.357,0.247l39.769,22.961c1.488,0.859,2.823,2.488,3.752,4.384l0,0L128.81,84.156z"/>
				<path style="opacity:0.6;" d="M121.46,139.041c0,1.978-0.636,3.39-1.65,4.043l8.59-5.041l-0.001-0.001
					c1.12-0.596,1.833-2.056,1.833-4.151v-44.22c0-1.824-0.544-3.79-1.423-5.516l-8.679,5.341l0,0
					c0.823,1.679,1.329,3.566,1.329,5.324V139.041z"/>
			</g>
			<g>
				<g>
					<path style="fill:#BA68C8;" d="M108.453,119.965c-1.529-2.514-3.071-5.019-4.602-7.532c-0.703-1.154-1.494-1.823-2.408-2.019
						c-0.742-0.159-1.485-0.321-2.241-0.548c-0.2-0.06-0.519-0.318-0.657-0.558c-2.55-4.417-4.541-8.954-5.926-13.603
						c-0.064-0.216-0.019-0.505,0.083-0.607c0.469-0.471,0.968-0.902,1.473-1.32c0.623-0.515,0.731-1.394,0.384-2.649
						c-0.739-2.671-1.453-5.338-2.186-8.008c-0.479-1.747-1.561-3.009-2.864-3.325c-1.814-0.44-3.449-0.383-4.901,0.178
						c-0.612,0.237-0.927,0.788-0.934,1.733c0.253,1.832,0.428,3.64,0.771,5.499c2.473,13.412,8.422,25.766,17.81,37.044
						c0.739,0.888,1.479,1.308,2.227,1.275c1.649-0.072,3.062-0.605,4.224-1.627C109.597,123.117,109.506,121.696,108.453,119.965z"
						/>
					<path style="fill:#BA68C8;" d="M108.334,106.369c-0.162-2.673-0.953-5.426-2.364-8.243c-1.02-2.038-2.273-3.873-3.746-5.507
						c-0.396-0.44-0.729-0.582-0.92-0.245c-0.195,0.344-0.006,0.798,0.379,1.229c0.131,0.147,0.261,0.295,0.387,0.449
						c2.899,3.517,4.563,7.293,4.983,11.328c0.032,0.308-0.023,0.613,0.088,0.912c0.118,0.318,0.373,0.75,0.592,0.906
						c0.207,0.147,0.445-0.001,0.616-0.014C108.343,106.791,108.347,106.585,108.334,106.369z"/>
					<path style="fill:#BA68C8;" d="M99.271,98.16c1.333,1.537,2.03,3.177,2.168,4.962c0.021,0.268,0.244,0.631,0.314,0.805
						c0.608,0.504,0.908,0.334,0.909-0.294c0.002-1.88-1.301-4.844-2.814-6.415c-0.376-0.391-0.693-0.509-0.873-0.181
						C98.81,97.341,98.936,97.774,99.271,98.16z"/>
				</g>
			</g>
			<g style="opacity:0.9;">
				<g>
					<path style="fill:#FFFFFF;" d="M108.453,119.965c-1.529-2.514-3.071-5.019-4.602-7.532c-0.703-1.154-1.494-1.823-2.408-2.019
						c-0.742-0.159-1.485-0.321-2.241-0.548c-0.2-0.06-0.519-0.318-0.657-0.558c-2.55-4.417-4.541-8.954-5.926-13.603
						c-0.064-0.216-0.019-0.505,0.083-0.607c0.469-0.471,0.968-0.902,1.473-1.32c0.623-0.515,0.731-1.394,0.384-2.649
						c-0.739-2.671-1.453-5.338-2.186-8.008c-0.479-1.747-1.561-3.009-2.864-3.325c-1.814-0.44-3.449-0.383-4.901,0.178
						c-0.612,0.237-0.927,0.788-0.934,1.733c0.253,1.832,0.428,3.64,0.771,5.499c2.473,13.412,8.422,25.766,17.81,37.044
						c0.739,0.888,1.479,1.308,2.227,1.275c1.649-0.072,3.062-0.605,4.224-1.627C109.597,123.117,109.506,121.696,108.453,119.965z"
						/>
					<path style="fill:#FFFFFF;" d="M108.334,106.369c-0.162-2.673-0.953-5.426-2.364-8.243c-1.02-2.038-2.273-3.873-3.746-5.507
						c-0.396-0.44-0.729-0.582-0.92-0.245c-0.195,0.344-0.006,0.798,0.379,1.229c0.131,0.147,0.261,0.295,0.387,0.449
						c2.899,3.517,4.563,7.293,4.983,11.328c0.032,0.308-0.023,0.613,0.088,0.912c0.118,0.318,0.373,0.75,0.592,0.906
						c0.207,0.147,0.445-0.001,0.616-0.014C108.343,106.791,108.347,106.585,108.334,106.369z"/>
					<path style="fill:#FFFFFF;" d="M99.271,98.16c1.333,1.537,2.03,3.177,2.168,4.962c0.021,0.268,0.244,0.631,0.314,0.805
						c0.608,0.504,0.908,0.334,0.909-0.294c0.002-1.88-1.301-4.844-2.814-6.415c-0.376-0.391-0.693-0.509-0.873-0.181
						C98.81,97.341,98.936,97.774,99.271,98.16z"/>
				</g>
			</g>
		</g>
	</g>
</g>
<g id="Clouds">
	<path style="fill:#E6E6E6;" d="M329.196,53.48l9.372,5.332v-3.317c-0.015-0.236-0.03-0.473-0.03-0.705
		c0-0.232,0.015-0.451,0.03-0.67v-0.078l0.003,0.002c0.337-4.396,3.666-6.081,7.729-3.735c1.731,0.999,3.324,2.581,4.615,4.432
		c0.916-5.971,5.787-8.126,11.675-4.726c6.541,3.776,11.843,12.96,11.843,20.512l0.006,7.106c0.001,1.144,0.608,2.203,1.595,2.782
		l5.513,3.234c2.433,1.427,3.927,4.036,3.927,6.857c0,2.52-2.729,4.095-4.911,2.834L329.338,63.75
		c-2.768-1.599-4.474-4.553-4.474-7.751C324.864,53.776,327.264,52.38,329.196,53.48z"/>
	<path style="fill:#E6E6E6;" d="M400.626,52.094l6.815,3.878V53.56c-0.011-0.172-0.022-0.344-0.022-0.512
		c0-0.169,0.011-0.328,0.022-0.487v-0.057l0.003,0.001c0.245-3.197,2.666-4.422,5.62-2.716c1.259,0.727,2.417,1.877,3.356,3.223
		c0.666-4.342,4.208-5.909,8.49-3.437c4.757,2.746,8.612,9.425,8.612,14.917l0.004,5.167c0.001,0.832,0.442,1.602,1.16,2.023
		l4.009,2.352c1.769,1.038,2.856,2.935,2.856,4.986c0,1.833-1.984,2.978-3.571,2.061l-37.251-21.519
		c-2.013-1.163-3.253-3.311-3.253-5.636C397.476,52.31,399.221,51.295,400.626,52.094z"/>
</g>
</svg>
